{
	"asset":{
		"generator":"Khronos glTF Blender I/O v4.2.69",
		"version":"2.0"
	},
	"scene":0,
	"scenes":[
		{
			"name":"Scene",
			"nodes":[
				0,
				1,
				2,
				3,
				4,
				5,
				6,
				7
			]
		}
	],
	"nodes":[
		{
			"mesh":0,
			"name":"Cube",
			"rotation":[
				1,
				0,
				0,
				4.371138828673793e-08
			],
			"translation":[
				-2.115571975708008,
				2.0545921325683594,
				-0.5912855267524719
			]
		},
		{
			"mesh":1,
			"name":"Cube.011",
			"translation":[
				-0.9970707893371582,
				2.351858615875244,
				-0.09066522121429443
			]
		},
		{
			"mesh":2,
			"name":"Cube.012",
			"translation":[
				-1.1338846683502197,
				2.734513759613037,
				-0.13056039810180664
			]
		},
		{
			"mesh":3,
			"name":"Cube.013",
			"rotation":[
				0.35620856285095215,
				-0.5201816558837891,
				-0.4789688289165497,
				0.6108317375183105
			],
			"translation":[
				-0.4781680107116699,
				3.9079480171203613,
				-0.7708505392074585
			]
		},
		{
			"mesh":4,
			"name":"Cube.014",
			"translation":[
				-1.8502700328826904,
				2.5147945880889893,
				-0.24251055717468262
			]
		},
		{
			"mesh":5,
			"name":"Cube.015",
			"rotation":[
				0.13221213221549988,
				-0.3071803152561188,
				-0.6738369464874268,
				0.658865749835968
			],
			"translation":[
				-0.11846041679382324,
				4.871406078338623,
				-0.9500682353973389
			]
		},
		{
			"mesh":6,
			"name":"Cube.005",
			"translation":[
				-3.2968480587005615,
				2.6332387924194336,
				0.24368345737457275
			]
		},
		{
			"mesh":7,
			"name":"Cube.016",
			"translation":[
				-2.776303768157959,
				2.3529622554779053,
				0.22942447662353516
			]
		}
	],
	"materials":[
		{
			"doubleSided":true,
			"name":"Material.007",
			"pbrMetallicRoughness":{
				"baseColorFactor":[
					0.0015507896896451712,
					0.0010518038179725409,
					0.001833295333199203,
					1
				],
				"metallicFactor":0,
				"roughnessFactor":0.5
			}
		},
		{
			"doubleSided":true,
			"name":"Material.004",
			"pbrMetallicRoughness":{
				"baseColorFactor":[
					0.04629792273044586,
					0.439447820186615,
					0.8020245432853699,
					1
				],
				"metallicFactor":0,
				"roughnessFactor":0.5
			}
		},
		{
			"doubleSided":true,
			"name":"Material.001",
			"pbrMetallicRoughness":{
				"baseColorFactor":[
					0.8013269305229187,
					0,
					0.014469292014837265,
					1
				],
				"metallicFactor":0,
				"roughnessFactor":0.5
			}
		},
		{
			"doubleSided":true,
			"name":"Material.003",
			"pbrMetallicRoughness":{
				"baseColorFactor":[
					0.8007350564002991,
					0,
					0.0040471963584423065,
					1
				],
				"metallicFactor":0,
				"roughnessFactor":0.5
			}
		},
		{
			"doubleSided":true,
			"name":"Material.005",
			"pbrMetallicRoughness":{
				"baseColorFactor":[
					0.8001194596290588,
					0,
					0.007975567132234573,
					1
				],
				"metallicFactor":0,
				"roughnessFactor":0.5
			}
		},
		{
			"doubleSided":true,
			"name":"Material.006",
			"pbrMetallicRoughness":{
				"baseColorFactor":[
					0.8014845848083496,
					0.22899982333183289,
					0.23297259211540222,
					1
				],
				"metallicFactor":0,
				"roughnessFactor":0.5
			}
		}
	],
	"meshes":[
		{
			"name":"Cube.019",
			"primitives":[
				{
					"attributes":{
						"POSITION":0,
						"NORMAL":1,
						"TEXCOORD_0":2
					},
					"indices":3
				}
			]
		},
		{
			"name":"Cube.022",
			"primitives":[
				{
					"attributes":{
						"POSITION":4,
						"NORMAL":5,
						"TEXCOORD_0":6
					},
					"indices":7,
					"material":0
				}
			]
		},
		{
			"name":"Cube.023",
			"primitives":[
				{
					"attributes":{
						"POSITION":8,
						"NORMAL":9,
						"TEXCOORD_0":10
					},
					"indices":7,
					"material":1
				}
			]
		},
		{
			"name":"Cube.001",
			"primitives":[
				{
					"attributes":{
						"POSITION":11,
						"NORMAL":12,
						"TEXCOORD_0":13
					},
					"indices":14,
					"material":2
				}
			]
		},
		{
			"name":"Cube.006",
			"primitives":[
				{
					"attributes":{
						"POSITION":15,
						"NORMAL":16,
						"TEXCOORD_0":17
					},
					"indices":18,
					"material":3
				}
			]
		},
		{
			"name":"Cube.007",
			"primitives":[
				{
					"attributes":{
						"POSITION":19,
						"NORMAL":20,
						"TEXCOORD_0":21
					},
					"indices":22,
					"material":4
				}
			]
		},
		{
			"name":"Cube.008",
			"primitives":[
				{
					"attributes":{
						"POSITION":23,
						"NORMAL":24,
						"TEXCOORD_0":25
					},
					"indices":3,
					"material":5
				}
			]
		},
		{
			"name":"Cube.009",
			"primitives":[
				{
					"attributes":{
						"POSITION":26,
						"NORMAL":27,
						"TEXCOORD_0":28
					},
					"indices":3
				}
			]
		}
	],
	"accessors":[
		{
			"bufferView":0,
			"componentType":5126,
			"count":20,
			"max":[
				3.417131185531616,
				0.16817697882652283,
				0.0752735510468483
			],
			"min":[
				2.5180463790893555,
				-0.7665439248085022,
				-0.9295114874839783
			],
			"type":"VEC3"
		},
		{
			"bufferView":1,
			"componentType":5126,
			"count":20,
			"type":"VEC3"
		},
		{
			"bufferView":2,
			"componentType":5126,
			"count":20,
			"type":"VEC2"
		},
		{
			"bufferView":3,
			"componentType":5123,
			"count":60,
			"type":"SCALAR"
		},
		{
			"bufferView":4,
			"componentType":5126,
			"count":14,
			"max":[
				2.1649832725524902,
				0.7870298027992249,
				-0.035450682044029236
			],
			"min":[
				1.8538775444030762,
				0.45165613293647766,
				-0.3530197739601135
			],
			"type":"VEC3"
		},
		{
			"bufferView":5,
			"componentType":5126,
			"count":14,
			"type":"VEC3"
		},
		{
			"bufferView":6,
			"componentType":5126,
			"count":14,
			"type":"VEC2"
		},
		{
			"bufferView":7,
			"componentType":5123,
			"count":36,
			"type":"SCALAR"
		},
		{
			"bufferView":8,
			"componentType":5126,
			"count":14,
			"max":[
				2.1649832725524902,
				0.7870298027992249,
				-0.035450682044029236
			],
			"min":[
				1.8538775444030762,
				0.45165613293647766,
				-0.3530197739601135
			],
			"type":"VEC3"
		},
		{
			"bufferView":9,
			"componentType":5126,
			"count":14,
			"type":"VEC3"
		},
		{
			"bufferView":10,
			"componentType":5126,
			"count":14,
			"type":"VEC2"
		},
		{
			"bufferView":11,
			"componentType":5126,
			"count":38,
			"max":[
				1.8270509243011475,
				0.6070787906646729,
				-0.008352447301149368
			],
			"min":[
				0.38729679584503174,
				-0.19690895080566406,
				-0.6591233611106873
			],
			"type":"VEC3"
		},
		{
			"bufferView":12,
			"componentType":5126,
			"count":38,
			"type":"VEC3"
		},
		{
			"bufferView":13,
			"componentType":5126,
			"count":38,
			"type":"VEC2"
		},
		{
			"bufferView":14,
			"componentType":5123,
			"count":132,
			"type":"SCALAR"
		},
		{
			"bufferView":15,
			"componentType":5126,
			"count":50,
			"max":[
				2.6642630100250244,
				1.1650323867797852,
				0.05855254828929901
			],
			"min":[
				1.8260762691497803,
				0.4452614188194275,
				-0.2894885241985321
			],
			"type":"VEC3"
		},
		{
			"bufferView":16,
			"componentType":5126,
			"count":50,
			"type":"VEC3"
		},
		{
			"bufferView":17,
			"componentType":5126,
			"count":50,
			"type":"VEC2"
		},
		{
			"bufferView":18,
			"componentType":5123,
			"count":228,
			"type":"SCALAR"
		},
		{
			"bufferView":19,
			"componentType":5126,
			"count":42,
			"max":[
				2.5253279209136963,
				1.0977586507797241,
				0.06023864448070526
			],
			"min":[
				1.8339873552322388,
				0.22677093744277954,
				-0.6270563006401062
			],
			"type":"VEC3"
		},
		{
			"bufferView":20,
			"componentType":5126,
			"count":42,
			"type":"VEC3"
		},
		{
			"bufferView":21,
			"componentType":5126,
			"count":42,
			"type":"VEC2"
		},
		{
			"bufferView":22,
			"componentType":5123,
			"count":204,
			"type":"SCALAR"
		},
		{
			"bufferView":23,
			"componentType":5126,
			"count":20,
			"max":[
				3.417131185531616,
				0.16817697882652283,
				0.0752735510468483
			],
			"min":[
				2.5180463790893555,
				-0.7665439248085022,
				-0.9295114874839783
			],
			"type":"VEC3"
		},
		{
			"bufferView":24,
			"componentType":5126,
			"count":20,
			"type":"VEC3"
		},
		{
			"bufferView":25,
			"componentType":5126,
			"count":20,
			"type":"VEC2"
		},
		{
			"bufferView":26,
			"componentType":5126,
			"count":20,
			"max":[
				3.312866449356079,
				0.16817696392536163,
				0.11413665860891342
			],
			"min":[
				2.722677707672119,
				-0.41404664516448975,
				-0.8906483054161072
			],
			"type":"VEC3"
		},
		{
			"bufferView":27,
			"componentType":5126,
			"count":20,
			"type":"VEC3"
		},
		{
			"bufferView":28,
			"componentType":5126,
			"count":20,
			"type":"VEC2"
		}
	],
	"bufferViews":[
		{
			"buffer":0,
			"byteLength":240,
			"byteOffset":0,
			"target":34962
		},
		{
			"buffer":0,
			"byteLength":240,
			"byteOffset":240,
			"target":34962
		},
		{
			"buffer":0,
			"byteLength":160,
			"byteOffset":480,
			"target":34962
		},
		{
			"buffer":0,
			"byteLength":120,
			"byteOffset":640,
			"target":34963
		},
		{
			"buffer":0,
			"byteLength":168,
			"byteOffset":760,
			"target":34962
		},
		{
			"buffer":0,
			"byteLength":168,
			"byteOffset":928,
			"target":34962
		},
		{
			"buffer":0,
			"byteLength":112,
			"byteOffset":1096,
			"target":34962
		},
		{
			"buffer":0,
			"byteLength":72,
			"byteOffset":1208,
			"target":34963
		},
		{
			"buffer":0,
			"byteLength":168,
			"byteOffset":1280,
			"target":34962
		},
		{
			"buffer":0,
			"byteLength":168,
			"byteOffset":1448,
			"target":34962
		},
		{
			"buffer":0,
			"byteLength":112,
			"byteOffset":1616,
			"target":34962
		},
		{
			"buffer":0,
			"byteLength":456,
			"byteOffset":1728,
			"target":34962
		},
		{
			"buffer":0,
			"byteLength":456,
			"byteOffset":2184,
			"target":34962
		},
		{
			"buffer":0,
			"byteLength":304,
			"byteOffset":2640,
			"target":34962
		},
		{
			"buffer":0,
			"byteLength":264,
			"byteOffset":2944,
			"target":34963
		},
		{
			"buffer":0,
			"byteLength":600,
			"byteOffset":3208,
			"target":34962
		},
		{
			"buffer":0,
			"byteLength":600,
			"byteOffset":3808,
			"target":34962
		},
		{
			"buffer":0,
			"byteLength":400,
			"byteOffset":4408,
			"target":34962
		},
		{
			"buffer":0,
			"byteLength":456,
			"byteOffset":4808,
			"target":34963
		},
		{
			"buffer":0,
			"byteLength":504,
			"byteOffset":5264,
			"target":34962
		},
		{
			"buffer":0,
			"byteLength":504,
			"byteOffset":5768,
			"target":34962
		},
		{
			"buffer":0,
			"byteLength":336,
			"byteOffset":6272,
			"target":34962
		},
		{
			"buffer":0,
			"byteLength":408,
			"byteOffset":6608,
			"target":34963
		},
		{
			"buffer":0,
			"byteLength":240,
			"byteOffset":7016,
			"target":34962
		},
		{
			"buffer":0,
			"byteLength":240,
			"byteOffset":7256,
			"target":34962
		},
		{
			"buffer":0,
			"byteLength":160,
			"byteOffset":7496,
			"target":34962
		},
		{
			"buffer":0,
			"byteLength":240,
			"byteOffset":7656,
			"target":34962
		},
		{
			"buffer":0,
			"byteLength":240,
			"byteOffset":7896,
			"target":34962
		},
		{
			"buffer":0,
			"byteLength":160,
			"byteOffset":8136,
			"target":34962
		}
	],
	"buffers":[
		{
			"byteLength":8296,
			"uri":"logo_3d.bin"
		}
	]
}
